<svg width="1804" height="742" viewBox="0 0 1804 742" fill="none" xmlns="http://www.w3.org/2000/svg">
<path opacity="0.2" d="M20.2137 354.22H0V334H20.2137V354.22ZM68.422 334H48.2082V354.22H68.422V334ZM116.61 334H96.3963V354.22H116.61V334ZM164.798 334H144.585V354.22H164.798V334ZM213.007 334H192.793V354.22H213.007V334ZM261.195 334H240.981V354.22H261.195V334ZM309.383 334H289.149V354.22H309.383V334ZM357.571 334H337.357V354.22H357.571V334ZM20.2137 378.493H0V398.714H20.2137V378.493ZM68.422 378.493H48.2082V398.714H68.422V378.493ZM116.61 378.493H96.3963V398.714H116.61V378.493ZM164.798 378.493H144.585V398.714H164.798V378.493ZM213.007 378.493H192.793V398.714H213.007V378.493ZM261.195 378.493H240.981V398.714H261.195V378.493ZM309.383 378.493H289.149V398.714H309.383V378.493ZM357.571 378.493H337.357V398.714H357.571V378.493ZM20.2137 422.986H0V443.207H20.2137V422.986ZM68.422 422.986H48.2082V443.207H68.422V422.986ZM116.61 422.986H96.3963V443.207H116.61V422.986ZM164.798 422.986H144.585V443.207H164.798V422.986ZM213.007 422.986H192.793V443.207H213.007V422.986ZM261.195 422.986H240.981V443.207H261.195V422.986ZM309.383 422.986H289.149V443.207H309.383V422.986ZM357.571 422.986H337.357V443.207H357.571V422.986ZM20.2137 467.499H0V487.72H20.2137V467.499ZM68.422 467.499H48.2082V487.72H68.422V467.499ZM116.61 467.499H96.3963V487.72H116.61V467.499ZM164.798 467.499H144.585V487.72H164.798V467.499ZM213.007 467.499H192.793V487.72H213.007V467.499ZM261.195 467.499H240.981V487.72H261.195V467.499ZM309.383 467.499H289.149V487.72H309.383V467.499ZM357.571 467.499H337.357V487.72H357.571V467.499ZM20.2137 511.992H0V532.213H20.2137V511.992ZM68.422 511.992H48.2082V532.213H68.422V511.992ZM116.61 511.992H96.3963V532.213H116.61V511.992ZM164.798 511.992H144.585V532.213H164.798V511.992ZM213.007 511.992H192.793V532.213H213.007V511.992ZM261.195 511.992H240.981V532.213H261.195V511.992ZM309.383 511.992H289.149V532.213H309.383V511.992ZM357.571 511.992H337.357V532.213H357.571V511.992ZM20.2137 556.506H0V576.726H20.2137V556.506ZM68.422 556.506H48.2082V576.726H68.422V556.506ZM116.61 556.506H96.3963V576.726H116.61V556.506ZM164.798 556.506H144.585V576.726H164.798V556.506ZM213.007 556.506H192.793V576.726H213.007V556.506ZM261.195 556.506H240.981V576.726H261.195V556.506ZM309.383 556.506H289.149V576.726H309.383V556.506ZM357.571 556.506H337.357V576.726H357.571V556.506ZM20.2137 600.999H0V621.219H20.2137V600.999ZM68.422 600.999H48.2082V621.219H68.422V600.999ZM116.61 600.999H96.3963V621.219H116.61V600.999ZM164.798 600.999H144.585V621.219H164.798V600.999ZM213.007 600.999H192.793V621.219H213.007V600.999ZM261.195 600.999H240.981V621.219H261.195V600.999ZM309.383 600.999H289.149V621.219H309.383V600.999ZM357.571 600.999H337.357V621.219H357.571V600.999ZM20.2137 645.492H0V665.712H20.2137V645.492ZM68.422 645.492H48.2082V665.712H68.422V645.492ZM116.61 645.492H96.3963V665.712H116.61V645.492ZM164.798 645.492H144.585V665.712H164.798V645.492ZM213.007 645.492H192.793V665.712H213.007V645.492ZM261.195 645.492H240.981V665.712H261.195V645.492ZM309.383 645.492H289.149V665.712H309.383V645.492ZM357.571 645.492H337.357V665.712H357.571V645.492Z" fill="white"/>
<path d="M465.02 87L446 73.5985L455.98 47L475 60.4015L465.02 87Z" fill="#D31663"/>
<path d="M474.772 60.3588L456 47L477.241 48.6412L496 62L474.772 60.3588Z" fill="#FF7BB8"/>
<path d="M496 61.6337L486.191 88L465 86.3663L474.834 60L496 61.6337Z" fill="#F92272"/>
<path d="M459.127 100L427 76.8741L443.86 31L476 54.1259L459.127 100Z" stroke="white" stroke-width="3" stroke-miterlimit="10" stroke-linecap="round" stroke-linejoin="round"/>
<path d="M476.368 54.1629L444 31L480.645 33.8244L513 57L476.368 54.1629Z" stroke="white" stroke-width="3" stroke-miterlimit="10" stroke-linecap="round" stroke-linejoin="round"/>
<path d="M513 56.8496L495.901 103L459 100.15L476.112 54L513 56.8496Z" stroke="white" stroke-width="3" stroke-miterlimit="10" stroke-linecap="round" stroke-linejoin="round"/>
<path d="M257.465 319L211 268.974L255.535 198L302 248.026L257.465 319Z" stroke="white" stroke-width="1.5" stroke-miterlimit="10" stroke-linecap="round" stroke-linejoin="round"/>
<path d="M301.383 247.631L255 198L315.617 215.369L362 265L301.383 247.631Z" stroke="white" stroke-width="1.5" stroke-miterlimit="10" stroke-linecap="round" stroke-linejoin="round"/>
<path d="M561 199.711H555.292V194H545.708V199.711H540V209.289H545.708V215H555.292V209.289H561V199.711Z" fill="#00B0EC"/>
<path d="M267 99.4936C267 106.403 261.627 112 254.994 112C248.361 112 243 106.403 243 99.4936C243 92.5966 248.373 87 254.994 87C261.615 87 267 92.5839 267 99.4936Z" fill="#00B0EC"/>
<path d="M332 35L358 50L332 65V35Z" fill="white"/>
<path d="M350 179L366 188L350 197V179Z" stroke="white" stroke-miterlimit="10" stroke-linecap="round" stroke-linejoin="round"/>
<path d="M588 1L612 14.5061L588 28V1Z" stroke="white" stroke-miterlimit="10" stroke-linecap="round" stroke-linejoin="round"/>
<path d="M416 193H419.918L430.155 165H426.237L416 193ZM456.078 165H452.16L441.922 193H445.84L456.078 165ZM443.123 165H439.205L428.967 193H432.885L443.123 165ZM469.033 165H465.114L454.877 193H458.795L469.033 165ZM482 165H478.082L467.844 193H471.763L482 165Z" fill="white"/>
<path d="M636 133.751H642.217L658.46 90H652.243L636 133.751ZM699.589 90H693.373L677.129 133.751H683.346L699.589 90ZM679.014 90H672.798L656.555 133.751H662.771L679.014 90ZM720.144 90H713.927L697.684 133.751H703.901L720.144 90ZM740.698 90H734.482L718.239 133.751H724.455L740.698 90Z" fill="white"/>
<path opacity="0.2" d="M1466.21 245.22H1446V225H1466.21V245.22ZM1514.42 225H1494.21V245.22H1514.42V225ZM1562.61 225H1542.4V245.22H1562.61V225ZM1610.8 225H1590.58V245.22H1610.8V225ZM1659.01 225H1638.79V245.22H1659.01V225ZM1707.19 225H1686.98V245.22H1707.19V225ZM1755.38 225H1735.15V245.22H1755.38V225ZM1803.57 225H1783.36V245.22H1803.57V225ZM1466.21 269.493H1446V289.714H1466.21V269.493ZM1514.42 269.493H1494.21V289.714H1514.42V269.493ZM1562.61 269.493H1542.4V289.714H1562.61V269.493ZM1610.8 269.493H1590.58V289.714H1610.8V269.493ZM1659.01 269.493H1638.79V289.714H1659.01V269.493ZM1707.19 269.493H1686.98V289.714H1707.19V269.493ZM1755.38 269.493H1735.15V289.714H1755.38V269.493ZM1803.57 269.493H1783.36V289.714H1803.57V269.493ZM1466.21 313.986H1446V334.207H1466.21V313.986ZM1514.42 313.986H1494.21V334.207H1514.42V313.986ZM1562.61 313.986H1542.4V334.207H1562.61V313.986ZM1610.8 313.986H1590.58V334.207H1610.8V313.986ZM1659.01 313.986H1638.79V334.207H1659.01V313.986ZM1707.19 313.986H1686.98V334.207H1707.19V313.986ZM1755.38 313.986H1735.15V334.207H1755.38V313.986ZM1803.57 313.986H1783.36V334.207H1803.57V313.986ZM1466.21 358.499H1446V378.72H1466.21V358.499ZM1514.42 358.499H1494.21V378.72H1514.42V358.499ZM1562.61 358.499H1542.4V378.72H1562.61V358.499ZM1610.8 358.499H1590.58V378.72H1610.8V358.499ZM1659.01 358.499H1638.79V378.72H1659.01V358.499ZM1707.19 358.499H1686.98V378.72H1707.19V358.499ZM1755.38 358.499H1735.15V378.72H1755.38V358.499ZM1803.57 358.499H1783.36V378.72H1803.57V358.499ZM1466.21 402.992H1446V423.213H1466.21V402.992ZM1514.42 402.992H1494.21V423.213H1514.42V402.992ZM1562.61 402.992H1542.4V423.213H1562.61V402.992ZM1610.8 402.992H1590.58V423.213H1610.8V402.992ZM1659.01 402.992H1638.79V423.213H1659.01V402.992ZM1707.19 402.992H1686.98V423.213H1707.19V402.992ZM1755.38 402.992H1735.15V423.213H1755.38V402.992ZM1803.57 402.992H1783.36V423.213H1803.57V402.992ZM1466.21 447.506H1446V467.726H1466.21V447.506ZM1514.42 447.506H1494.21V467.726H1514.42V447.506ZM1562.61 447.506H1542.4V467.726H1562.61V447.506ZM1610.8 447.506H1590.58V467.726H1610.8V447.506ZM1659.01 447.506H1638.79V467.726H1659.01V447.506ZM1707.19 447.506H1686.98V467.726H1707.19V447.506ZM1755.38 447.506H1735.15V467.726H1755.38V447.506ZM1803.57 447.506H1783.36V467.726H1803.57V447.506ZM1466.21 491.999H1446V512.219H1466.21V491.999ZM1514.42 491.999H1494.21V512.219H1514.42V491.999ZM1562.61 491.999H1542.4V512.219H1562.61V491.999ZM1610.8 491.999H1590.58V512.219H1610.8V491.999ZM1659.01 491.999H1638.79V512.219H1659.01V491.999ZM1707.19 491.999H1686.98V512.219H1707.19V491.999ZM1755.38 491.999H1735.15V512.219H1755.38V491.999ZM1803.57 491.999H1783.36V512.219H1803.57V491.999ZM1466.21 536.492H1446V556.712H1466.21V536.492ZM1514.42 536.492H1494.21V556.712H1514.42V536.492ZM1562.61 536.492H1542.4V556.712H1562.61V536.492ZM1610.8 536.492H1590.58V556.712H1610.8V536.492ZM1659.01 536.492H1638.79V556.712H1659.01V536.492ZM1707.19 536.492H1686.98V556.712H1707.19V536.492ZM1755.38 536.492H1735.15V556.712H1755.38V536.492ZM1803.57 536.492H1783.36V556.712H1803.57V536.492Z" fill="white"/>
<path d="M1385 477L1344.95 472.163L1338 424L1378.07 428.837L1385 477Z" fill="#D31663"/>
<path d="M1377.45 429L1338 424.106L1371.57 409L1411 413.894L1377.45 429Z" fill="#FF7BB8"/>
<path d="M1411.23 414L1418 462.075L1384.76 477L1378 428.907L1411.23 414Z" fill="#F92272"/>
<path d="M1387 502L1317.97 493.504L1306 409L1375.03 417.496L1387 502Z" stroke="white" stroke-width="3" stroke-miterlimit="10" stroke-linecap="round" stroke-linejoin="round"/>
<path d="M1375.15 418L1306 409.448L1364.85 383L1434 391.57L1375.15 418Z" stroke="white" stroke-width="3" stroke-miterlimit="10" stroke-linecap="round" stroke-linejoin="round"/>
<path d="M1433.15 391L1445 475.711L1386.85 502L1375 417.272L1433.15 391Z" stroke="white" stroke-width="3" stroke-miterlimit="10" stroke-linecap="round" stroke-linejoin="round"/>
<path d="M1683 718.356L1615.33 741L1567 667.644L1634.67 645L1683 718.356Z" stroke="white" stroke-width="1.5" stroke-miterlimit="10" stroke-linecap="round" stroke-linejoin="round"/>
<path d="M1634.34 645.368L1567 668L1609.66 617.632L1677 595L1634.34 645.368Z" stroke="white" stroke-width="1.5" stroke-miterlimit="10" stroke-linecap="round" stroke-linejoin="round"/>
<path d="M1677.79 595L1726 667.91L1683.23 718L1635 645.09L1677.79 595Z" stroke="white" stroke-width="1.5" stroke-miterlimit="10" stroke-linecap="round" stroke-linejoin="round"/>
<path d="M1603 478.991C1603 488.389 1595.39 496 1585.99 496C1576.61 496 1569 488.389 1569 478.991C1569 469.611 1576.61 462 1585.99 462C1595.39 462 1603 469.611 1603 478.991Z" fill="#F8B234"/>
<path d="M1447 526L1483 547L1447 568V526Z" fill="white"/>
<path d="M1442 740H1447.4L1461.52 702H1456.12L1442 740ZM1497.25 702H1491.85L1477.73 740H1483.13L1497.25 702ZM1479.39 702H1473.98L1459.87 740H1465.27L1479.39 702ZM1515.12 702H1509.71L1495.6 740H1501L1515.12 702ZM1533 702H1527.6L1513.48 740H1518.88L1533 702Z" fill="white"/>
</svg>
