<svg width="1440" height="450" viewBox="0 0 1440 450" fill="none" xmlns="http://www.w3.org/2000/svg">
<g clip-path="url(#clip0)">
<rect width="1440" height="450" fill="url(#paint0_linear)"/>
<path opacity="0.2" d="M1203.21 -107.78H1183V-128H1203.21V-107.78ZM1251.42 -128H1231.21V-107.78H1251.42V-128ZM1299.61 -128H1279.4V-107.78H1299.61V-128ZM1347.8 -128H1327.58V-107.78H1347.8V-128ZM1396.01 -128H1375.79V-107.78H1396.01V-128ZM1444.19 -128H1423.98V-107.78H1444.19V-128ZM1492.38 -128H1472.15V-107.78H1492.38V-128ZM1540.57 -128H1520.36V-107.78H1540.57V-128ZM1203.21 -83.5069H1183V-63.2864H1203.21V-83.5069ZM1251.42 -83.5069H1231.21V-63.2864H1251.42V-83.5069ZM1299.61 -83.5069H1279.4V-63.2864H1299.61V-83.5069ZM1347.8 -83.5069H1327.58V-63.2864H1347.8V-83.5069ZM1396.01 -83.5069H1375.79V-63.2864H1396.01V-83.5069ZM1444.19 -83.5069H1423.98V-63.2864H1444.19V-83.5069ZM1492.38 -83.5069H1472.15V-63.2864H1492.38V-83.5069ZM1540.57 -83.5069H1520.36V-63.2864H1540.57V-83.5069ZM1203.21 -39.0138H1183V-18.7934H1203.21V-39.0138ZM1251.42 -39.0138H1231.21V-18.7934H1251.42V-39.0138ZM1299.61 -39.0138H1279.4V-18.7934H1299.61V-39.0138ZM1347.8 -39.0138H1327.58V-18.7934H1347.8V-39.0138ZM1396.01 -39.0138H1375.79V-18.7934H1396.01V-39.0138ZM1444.19 -39.0138H1423.98V-18.7934H1444.19V-39.0138ZM1492.38 -39.0138H1472.15V-18.7934H1492.38V-39.0138ZM1540.57 -39.0138H1520.36V-18.7934H1540.57V-39.0138ZM1203.21 5.4993H1183V25.7198H1203.21V5.4993ZM1251.42 5.4993H1231.21V25.7198H1251.42V5.4993ZM1299.61 5.4993H1279.4V25.7198H1299.61V5.4993ZM1347.8 5.4993H1327.58V25.7198H1347.8V5.4993ZM1396.01 5.4993H1375.79V25.7198H1396.01V5.4993ZM1444.19 5.4993H1423.98V25.7198H1444.19V5.4993ZM1492.38 5.4993H1472.15V25.7198H1492.38V5.4993ZM1540.57 5.4993H1520.36V25.7198H1540.57V5.4993ZM1203.21 49.9924H1183V70.2129H1203.21V49.9924ZM1251.42 49.9924H1231.21V70.2129H1251.42V49.9924ZM1299.61 49.9924H1279.4V70.2129H1299.61V49.9924ZM1347.8 49.9924H1327.58V70.2129H1347.8V49.9924ZM1396.01 49.9924H1375.79V70.2129H1396.01V49.9924ZM1444.19 49.9924H1423.98V70.2129H1444.19V49.9924ZM1492.38 49.9924H1472.15V70.2129H1492.38V49.9924ZM1540.57 49.9924H1520.36V70.2129H1540.57V49.9924ZM1203.21 94.5055H1183V114.726H1203.21V94.5055ZM1251.42 94.5055H1231.21V114.726H1251.42V94.5055ZM1299.61 94.5055H1279.4V114.726H1299.61V94.5055ZM1347.8 94.5055H1327.58V114.726H1347.8V94.5055ZM1396.01 94.5055H1375.79V114.726H1396.01V94.5055ZM1444.19 94.5055H1423.98V114.726H1444.19V94.5055ZM1492.38 94.5055H1472.15V114.726H1492.38V94.5055ZM1540.57 94.5055H1520.36V114.726H1540.57V94.5055ZM1203.21 138.999H1183V159.219H1203.21V138.999ZM1251.42 138.999H1231.21V159.219H1251.42V138.999ZM1299.61 138.999H1279.4V159.219H1299.61V138.999ZM1347.8 138.999H1327.58V159.219H1347.8V138.999ZM1396.01 138.999H1375.79V159.219H1396.01V138.999ZM1444.19 138.999H1423.98V159.219H1444.19V138.999ZM1492.38 138.999H1472.15V159.219H1492.38V138.999ZM1540.57 138.999H1520.36V159.219H1540.57V138.999ZM1203.21 183.492H1183V203.712H1203.21V183.492ZM1251.42 183.492H1231.21V203.712H1251.42V183.492ZM1299.61 183.492H1279.4V203.712H1299.61V183.492ZM1347.8 183.492H1327.58V203.712H1347.8V183.492ZM1396.01 183.492H1375.79V203.712H1396.01V183.492ZM1444.19 183.492H1423.98V203.712H1444.19V183.492ZM1492.38 183.492H1472.15V203.712H1492.38V183.492ZM1540.57 183.492H1520.36V203.712H1540.57V183.492Z" fill="white"/>
<path opacity="0.2" d="M-149.786 374.22H-170V354H-149.786V374.22ZM-101.578 354H-121.792V374.22H-101.578V354ZM-53.3899 354H-73.6037V374.22H-53.3899V354ZM-5.20178 354H-25.4155V374.22H-5.20178V354ZM43.0065 354H22.7927V374.22H43.0065V354ZM91.1946 354H70.9809V374.22H91.1946V354ZM139.383 354H119.149V374.22H139.383V354ZM187.571 354H167.357V374.22H187.571V354ZM-149.786 398.493H-170V418.714H-149.786V398.493ZM-101.578 398.493H-121.792V418.714H-101.578V398.493ZM-53.3899 398.493H-73.6037V418.714H-53.3899V398.493ZM-5.20178 398.493H-25.4155V418.714H-5.20178V398.493ZM43.0065 398.493H22.7927V418.714H43.0065V398.493ZM91.1946 398.493H70.9809V418.714H91.1946V398.493ZM139.383 398.493H119.149V418.714H139.383V398.493ZM187.571 398.493H167.357V418.714H187.571V398.493ZM-149.786 442.986H-170V463.207H-149.786V442.986ZM-101.578 442.986H-121.792V463.207H-101.578V442.986ZM-53.3899 442.986H-73.6037V463.207H-53.3899V442.986ZM-5.20178 442.986H-25.4155V463.207H-5.20178V442.986ZM43.0065 442.986H22.7927V463.207H43.0065V442.986ZM91.1946 442.986H70.9809V463.207H91.1946V442.986ZM139.383 442.986H119.149V463.207H139.383V442.986ZM187.571 442.986H167.357V463.207H187.571V442.986ZM-149.786 487.499H-170V507.72H-149.786V487.499ZM-101.578 487.499H-121.792V507.72H-101.578V487.499ZM-53.3899 487.499H-73.6037V507.72H-53.3899V487.499ZM-5.20178 487.499H-25.4155V507.72H-5.20178V487.499ZM43.0065 487.499H22.7927V507.72H43.0065V487.499ZM91.1946 487.499H70.9809V507.72H91.1946V487.499ZM139.383 487.499H119.149V507.72H139.383V487.499ZM187.571 487.499H167.357V507.72H187.571V487.499ZM-149.786 531.992H-170V552.213H-149.786V531.992ZM-101.578 531.992H-121.792V552.213H-101.578V531.992ZM-53.3899 531.992H-73.6037V552.213H-53.3899V531.992ZM-5.20178 531.992H-25.4155V552.213H-5.20178V531.992ZM43.0065 531.992H22.7927V552.213H43.0065V531.992ZM91.1946 531.992H70.9809V552.213H91.1946V531.992ZM139.383 531.992H119.149V552.213H139.383V531.992ZM187.571 531.992H167.357V552.213H187.571V531.992ZM-149.786 576.506H-170V596.726H-149.786V576.506ZM-101.578 576.506H-121.792V596.726H-101.578V576.506ZM-53.3899 576.506H-73.6037V596.726H-53.3899V576.506ZM-5.20178 576.506H-25.4155V596.726H-5.20178V576.506ZM43.0065 576.506H22.7927V596.726H43.0065V576.506ZM91.1946 576.506H70.9809V596.726H91.1946V576.506ZM139.383 576.506H119.149V596.726H139.383V576.506ZM187.571 576.506H167.357V596.726H187.571V576.506ZM-149.786 620.999H-170V641.219H-149.786V620.999ZM-101.578 620.999H-121.792V641.219H-101.578V620.999ZM-53.3899 620.999H-73.6037V641.219H-53.3899V620.999ZM-5.20178 620.999H-25.4155V641.219H-5.20178V620.999ZM43.0065 620.999H22.7927V641.219H43.0065V620.999ZM91.1946 620.999H70.9809V641.219H91.1946V620.999ZM139.383 620.999H119.149V641.219H139.383V620.999ZM187.571 620.999H167.357V641.219H187.571V620.999ZM-149.786 665.492H-170V685.712H-149.786V665.492ZM-101.578 665.492H-121.792V685.712H-101.578V665.492ZM-53.3899 665.492H-73.6037V685.712H-53.3899V665.492ZM-5.20178 665.492H-25.4155V685.712H-5.20178V665.492ZM43.0065 665.492H22.7927V685.712H43.0065V665.492ZM91.1946 665.492H70.9809V685.712H91.1946V665.492ZM139.383 665.492H119.149V685.712H139.383V665.492ZM187.571 665.492H167.357V685.712H187.571V665.492Z" fill="white"/>
<path d="M295.02 107L276 93.5985L285.98 67L305 80.4015L295.02 107Z" fill="#D31663"/>
<path d="M304.772 80.3588L286 67L307.241 68.6412L326 82L304.772 80.3588Z" fill="#FF7BB8"/>
<path d="M326 81.6337L316.191 108L295 106.366L304.834 80L326 81.6337Z" fill="#F92272"/>
<path d="M289.127 120L257 96.8741L273.86 51L306 74.1259L289.127 120Z" stroke="white" stroke-width="3" stroke-miterlimit="10" stroke-linecap="round" stroke-linejoin="round"/>
<path d="M306.368 74.1629L274 51L310.645 53.8244L343 77L306.368 74.1629Z" stroke="white" stroke-width="3" stroke-miterlimit="10" stroke-linecap="round" stroke-linejoin="round"/>
<path d="M343 76.8496L325.901 123L289 120.15L306.112 74L343 76.8496Z" stroke="white" stroke-width="3" stroke-miterlimit="10" stroke-linecap="round" stroke-linejoin="round"/>
<path d="M87.4654 339L41 288.974L85.5346 218L132 268.026L87.4654 339Z" stroke="white" stroke-width="1.5" stroke-miterlimit="10" stroke-linecap="round" stroke-linejoin="round"/>
<path d="M131.383 267.631L85 218L145.617 235.369L192 285L131.383 267.631Z" stroke="white" stroke-width="1.5" stroke-miterlimit="10" stroke-linecap="round" stroke-linejoin="round"/>
<path d="M391 219.711H385.292V214H375.708V219.711H370V229.289H375.708V235H385.292V229.289H391V219.711Z" fill="#00B0EC"/>
<path d="M97 119.494C97 126.403 91.6272 132 84.9939 132C78.3605 132 73 126.403 73 119.494C73 112.597 78.3728 107 84.9939 107C91.615 107 97 112.584 97 119.494Z" fill="#00B0EC"/>
<path d="M162 55L188 70L162 85V55Z" fill="white"/>
<path d="M180 199L196 208L180 217V199Z" stroke="white" stroke-miterlimit="10" stroke-linecap="round" stroke-linejoin="round"/>
<path d="M418 21L442 34.5061L418 48V21Z" stroke="white" stroke-miterlimit="10" stroke-linecap="round" stroke-linejoin="round"/>
<path d="M246 213H249.918L260.155 185H256.237L246 213ZM286.078 185H282.16L271.922 213H275.84L286.078 185ZM273.123 185H269.205L258.967 213H262.885L273.123 185ZM299.033 185H295.114L284.877 213H288.795L299.033 185ZM312 185H308.082L297.844 213H301.763L312 185Z" fill="white"/>
<path d="M1122 124L1081.95 119.163L1075 71L1115.07 75.8372L1122 124Z" fill="#D31663"/>
<path d="M1114.45 76L1075 71.1056L1108.57 56L1148 60.8944L1114.45 76Z" fill="#FF7BB8"/>
<path d="M1148.23 61L1155 109.075L1121.76 124L1115 75.9073L1148.23 61Z" fill="#F92272"/>
<path d="M1124 149L1054.97 140.504L1043 56L1112.03 64.4958L1124 149Z" stroke="white" stroke-width="3" stroke-miterlimit="10" stroke-linecap="round" stroke-linejoin="round"/>
<path d="M1112.15 65L1043 56.448L1101.85 30L1171 38.5696L1112.15 65Z" stroke="white" stroke-width="3" stroke-miterlimit="10" stroke-linecap="round" stroke-linejoin="round"/>
<path d="M1170.15 38L1182 122.711L1123.85 149L1112 64.272L1170.15 38Z" stroke="white" stroke-width="3" stroke-miterlimit="10" stroke-linecap="round" stroke-linejoin="round"/>
<path d="M1420 365.356L1352.33 388L1304 314.644L1371.67 292L1420 365.356Z" stroke="white" stroke-width="1.5" stroke-miterlimit="10" stroke-linecap="round" stroke-linejoin="round"/>
<path d="M1371.34 292.368L1304 315L1346.66 264.632L1414 242L1371.34 292.368Z" stroke="white" stroke-width="1.5" stroke-miterlimit="10" stroke-linecap="round" stroke-linejoin="round"/>
<path d="M1414.79 242L1463 314.91L1420.23 365L1372 292.09L1414.79 242Z" stroke="white" stroke-width="1.5" stroke-miterlimit="10" stroke-linecap="round" stroke-linejoin="round"/>
<path d="M1340 125.991C1340 135.389 1332.39 143 1322.99 143C1313.61 143 1306 135.389 1306 125.991C1306 116.611 1313.61 109 1322.99 109C1332.39 109 1340 116.611 1340 125.991Z" fill="#F8B234"/>
<path d="M1184 173L1220 194L1184 215V173Z" fill="white"/>
<path d="M1179 387H1184.4L1198.52 349H1193.12L1179 387ZM1234.25 349H1228.85L1214.73 387H1220.13L1234.25 349ZM1216.39 349H1210.98L1196.87 387H1202.27L1216.39 349ZM1252.12 349H1246.71L1232.6 387H1238L1252.12 349ZM1270 349H1264.6L1250.48 387H1255.88L1270 349Z" fill="white"/>
<path d="M466 153.751H472.217L488.46 110H482.243L466 153.751ZM529.589 110H523.373L507.129 153.751H513.346L529.589 110ZM509.014 110H502.798L486.555 153.751H492.771L509.014 110ZM550.144 110H543.927L527.684 153.751H533.901L550.144 110ZM570.698 110H564.482L548.239 153.751H554.455L570.698 110Z" fill="white"/>
</g>
<defs>
<linearGradient id="paint0_linear" x1="720" y1="0" x2="720" y2="450" gradientUnits="userSpaceOnUse">
<stop stop-color="#740389"/>
<stop offset="1" stop-color="#510075"/>
</linearGradient>
<clipPath id="clip0">
<rect width="1440" height="450" fill="white"/>
</clipPath>
</defs>
</svg>
