<svg width="1920" height="960" viewBox="0 0 1920 960" fill="none" xmlns="http://www.w3.org/2000/svg">
<rect width="1920" height="960" fill="url(#paint0_linear)"/>
<path opacity="0.2" d="M1466.21 326.22H1446V306H1466.21V326.22ZM1514.42 306H1494.21V326.22H1514.42V306ZM1562.61 306H1542.4V326.22H1562.61V306ZM1610.8 306H1590.58V326.22H1610.8V306ZM1659.01 306H1638.79V326.22H1659.01V306ZM1707.19 306H1686.98V326.22H1707.19V306ZM1755.38 306H1735.15V326.22H1755.38V306ZM1803.57 306H1783.36V326.22H1803.57V306ZM1466.21 350.493H1446V370.714H1466.21V350.493ZM1514.42 350.493H1494.21V370.714H1514.42V350.493ZM1562.61 350.493H1542.4V370.714H1562.61V350.493ZM1610.8 350.493H1590.58V370.714H1610.8V350.493ZM1659.01 350.493H1638.79V370.714H1659.01V350.493ZM1707.19 350.493H1686.98V370.714H1707.19V350.493ZM1755.38 350.493H1735.15V370.714H1755.38V350.493ZM1803.57 350.493H1783.36V370.714H1803.57V350.493ZM1466.21 394.986H1446V415.207H1466.21V394.986ZM1514.42 394.986H1494.21V415.207H1514.42V394.986ZM1562.61 394.986H1542.4V415.207H1562.61V394.986ZM1610.8 394.986H1590.58V415.207H1610.8V394.986ZM1659.01 394.986H1638.79V415.207H1659.01V394.986ZM1707.19 394.986H1686.98V415.207H1707.19V394.986ZM1755.38 394.986H1735.15V415.207H1755.38V394.986ZM1803.57 394.986H1783.36V415.207H1803.57V394.986ZM1466.21 439.499H1446V459.72H1466.21V439.499ZM1514.42 439.499H1494.21V459.72H1514.42V439.499ZM1562.61 439.499H1542.4V459.72H1562.61V439.499ZM1610.8 439.499H1590.58V459.72H1610.8V439.499ZM1659.01 439.499H1638.79V459.72H1659.01V439.499ZM1707.19 439.499H1686.98V459.72H1707.19V439.499ZM1755.38 439.499H1735.15V459.72H1755.38V439.499ZM1803.57 439.499H1783.36V459.72H1803.57V439.499ZM1466.21 483.992H1446V504.213H1466.21V483.992ZM1514.42 483.992H1494.21V504.213H1514.42V483.992ZM1562.61 483.992H1542.4V504.213H1562.61V483.992ZM1610.8 483.992H1590.58V504.213H1610.8V483.992ZM1659.01 483.992H1638.79V504.213H1659.01V483.992ZM1707.19 483.992H1686.98V504.213H1707.19V483.992ZM1755.38 483.992H1735.15V504.213H1755.38V483.992ZM1803.57 483.992H1783.36V504.213H1803.57V483.992ZM1466.21 528.506H1446V548.726H1466.21V528.506ZM1514.42 528.506H1494.21V548.726H1514.42V528.506ZM1562.61 528.506H1542.4V548.726H1562.61V528.506ZM1610.8 528.506H1590.58V548.726H1610.8V528.506ZM1659.01 528.506H1638.79V548.726H1659.01V528.506ZM1707.19 528.506H1686.98V548.726H1707.19V528.506ZM1755.38 528.506H1735.15V548.726H1755.38V528.506ZM1803.57 528.506H1783.36V548.726H1803.57V528.506ZM1466.21 572.999H1446V593.219H1466.21V572.999ZM1514.42 572.999H1494.21V593.219H1514.42V572.999ZM1562.61 572.999H1542.4V593.219H1562.61V572.999ZM1610.8 572.999H1590.58V593.219H1610.8V572.999ZM1659.01 572.999H1638.79V593.219H1659.01V572.999ZM1707.19 572.999H1686.98V593.219H1707.19V572.999ZM1755.38 572.999H1735.15V593.219H1755.38V572.999ZM1803.57 572.999H1783.36V593.219H1803.57V572.999ZM1466.21 617.492H1446V637.712H1466.21V617.492ZM1514.42 617.492H1494.21V637.712H1514.42V617.492ZM1562.61 617.492H1542.4V637.712H1562.61V617.492ZM1610.8 617.492H1590.58V637.712H1610.8V617.492ZM1659.01 617.492H1638.79V637.712H1659.01V617.492ZM1707.19 617.492H1686.98V637.712H1707.19V617.492ZM1755.38 617.492H1735.15V637.712H1755.38V617.492ZM1803.57 617.492H1783.36V637.712H1803.57V617.492Z" fill="white"/>
<path d="M1385 558L1344.95 553.163L1338 505L1378.07 509.837L1385 558Z" fill="#D31663"/>
<path d="M1377.45 510L1338 505.106L1371.57 490L1411 494.894L1377.45 510Z" fill="#FF7BB8"/>
<path d="M1411.23 495L1418 543.075L1384.76 558L1378 509.907L1411.23 495Z" fill="#F92272"/>
<path d="M1387 583L1317.97 574.504L1306 490L1375.03 498.496L1387 583Z" stroke="white" stroke-width="3" stroke-miterlimit="10" stroke-linecap="round" stroke-linejoin="round"/>
<path d="M1375.15 499L1306 490.448L1364.85 464L1434 472.57L1375.15 499Z" stroke="white" stroke-width="3" stroke-miterlimit="10" stroke-linecap="round" stroke-linejoin="round"/>
<path d="M1433.15 472L1445 556.711L1386.85 583L1375 498.272L1433.15 472Z" stroke="white" stroke-width="3" stroke-miterlimit="10" stroke-linecap="round" stroke-linejoin="round"/>
<path d="M1683 799.356L1615.33 822L1567 748.644L1634.67 726L1683 799.356Z" stroke="white" stroke-width="1.5" stroke-miterlimit="10" stroke-linecap="round" stroke-linejoin="round"/>
<path d="M1634.34 726.368L1567 749L1609.66 698.632L1677 676L1634.34 726.368Z" stroke="white" stroke-width="1.5" stroke-miterlimit="10" stroke-linecap="round" stroke-linejoin="round"/>
<path d="M1677.79 676L1726 748.91L1683.23 799L1635 726.09L1677.79 676Z" stroke="white" stroke-width="1.5" stroke-miterlimit="10" stroke-linecap="round" stroke-linejoin="round"/>
<path d="M1603 559.991C1603 569.389 1595.39 577 1585.99 577C1576.61 577 1569 569.389 1569 559.991C1569 550.611 1576.61 543 1585.99 543C1595.39 543 1603 550.611 1603 559.991Z" fill="#F8B234"/>
<path d="M1447 607L1483 628L1447 649V607Z" fill="white"/>
<path d="M1442 821H1447.4L1461.52 783H1456.12L1442 821ZM1497.25 783H1491.85L1477.73 821H1483.13L1497.25 783ZM1479.39 783H1473.98L1459.87 821H1465.27L1479.39 783ZM1515.12 783H1509.71L1495.6 821H1501L1515.12 783ZM1533 783H1527.6L1513.48 821H1518.88L1533 783Z" fill="white"/>
<path opacity="0.2" d="M120.214 437.22H100V417H120.214V437.22ZM168.422 417H148.208V437.22H168.422V417ZM216.61 417H196.396V437.22H216.61V417ZM264.798 417H244.585V437.22H264.798V417ZM313.007 417H292.793V437.22H313.007V417ZM361.195 417H340.981V437.22H361.195V417ZM409.383 417H389.149V437.22H409.383V417ZM457.571 417H437.357V437.22H457.571V417ZM120.214 461.493H100V481.714H120.214V461.493ZM168.422 461.493H148.208V481.714H168.422V461.493ZM216.61 461.493H196.396V481.714H216.61V461.493ZM264.798 461.493H244.585V481.714H264.798V461.493ZM313.007 461.493H292.793V481.714H313.007V461.493ZM361.195 461.493H340.981V481.714H361.195V461.493ZM409.383 461.493H389.149V481.714H409.383V461.493ZM457.571 461.493H437.357V481.714H457.571V461.493ZM120.214 505.986H100V526.207H120.214V505.986ZM168.422 505.986H148.208V526.207H168.422V505.986ZM216.61 505.986H196.396V526.207H216.61V505.986ZM264.798 505.986H244.585V526.207H264.798V505.986ZM313.007 505.986H292.793V526.207H313.007V505.986ZM361.195 505.986H340.981V526.207H361.195V505.986ZM409.383 505.986H389.149V526.207H409.383V505.986ZM457.571 505.986H437.357V526.207H457.571V505.986ZM120.214 550.499H100V570.72H120.214V550.499ZM168.422 550.499H148.208V570.72H168.422V550.499ZM216.61 550.499H196.396V570.72H216.61V550.499ZM264.798 550.499H244.585V570.72H264.798V550.499ZM313.007 550.499H292.793V570.72H313.007V550.499ZM361.195 550.499H340.981V570.72H361.195V550.499ZM409.383 550.499H389.149V570.72H409.383V550.499ZM457.571 550.499H437.357V570.72H457.571V550.499ZM120.214 594.992H100V615.213H120.214V594.992ZM168.422 594.992H148.208V615.213H168.422V594.992ZM216.61 594.992H196.396V615.213H216.61V594.992ZM264.798 594.992H244.585V615.213H264.798V594.992ZM313.007 594.992H292.793V615.213H313.007V594.992ZM361.195 594.992H340.981V615.213H361.195V594.992ZM409.383 594.992H389.149V615.213H409.383V594.992ZM457.571 594.992H437.357V615.213H457.571V594.992ZM120.214 639.506H100V659.726H120.214V639.506ZM168.422 639.506H148.208V659.726H168.422V639.506ZM216.61 639.506H196.396V659.726H216.61V639.506ZM264.798 639.506H244.585V659.726H264.798V639.506ZM313.007 639.506H292.793V659.726H313.007V639.506ZM361.195 639.506H340.981V659.726H361.195V639.506ZM409.383 639.506H389.149V659.726H409.383V639.506ZM457.571 639.506H437.357V659.726H457.571V639.506ZM120.214 683.999H100V704.219H120.214V683.999ZM168.422 683.999H148.208V704.219H168.422V683.999ZM216.61 683.999H196.396V704.219H216.61V683.999ZM264.798 683.999H244.585V704.219H264.798V683.999ZM313.007 683.999H292.793V704.219H313.007V683.999ZM361.195 683.999H340.981V704.219H361.195V683.999ZM409.383 683.999H389.149V704.219H409.383V683.999ZM457.571 683.999H437.357V704.219H457.571V683.999ZM120.214 728.492H100V748.712H120.214V728.492ZM168.422 728.492H148.208V748.712H168.422V728.492ZM216.61 728.492H196.396V748.712H216.61V728.492ZM264.798 728.492H244.585V748.712H264.798V728.492ZM313.007 728.492H292.793V748.712H313.007V728.492ZM361.195 728.492H340.981V748.712H361.195V728.492ZM409.383 728.492H389.149V748.712H409.383V728.492ZM457.571 728.492H437.357V748.712H457.571V728.492Z" fill="white"/>
<path d="M565.02 170L546 156.599L555.98 130L575 143.401L565.02 170Z" fill="#D31663"/>
<path d="M574.772 143.359L556 130L577.241 131.641L596 145L574.772 143.359Z" fill="#FF7BB8"/>
<path d="M596 144.634L586.191 171L565 169.366L574.834 143L596 144.634Z" fill="#F92272"/>
<path d="M559.127 183L527 159.874L543.86 114L576 137.126L559.127 183Z" stroke="white" stroke-width="3" stroke-miterlimit="10" stroke-linecap="round" stroke-linejoin="round"/>
<path d="M576.368 137.163L544 114L580.645 116.824L613 140L576.368 137.163Z" stroke="white" stroke-width="3" stroke-miterlimit="10" stroke-linecap="round" stroke-linejoin="round"/>
<path d="M613 139.85L595.901 186L559 183.15L576.112 137L613 139.85Z" stroke="white" stroke-width="3" stroke-miterlimit="10" stroke-linecap="round" stroke-linejoin="round"/>
<path d="M357.465 402L311 351.974L355.535 281L402 331.026L357.465 402Z" stroke="white" stroke-width="1.5" stroke-miterlimit="10" stroke-linecap="round" stroke-linejoin="round"/>
<path d="M401.383 330.631L355 281L415.617 298.369L462 348L401.383 330.631Z" stroke="white" stroke-width="1.5" stroke-miterlimit="10" stroke-linecap="round" stroke-linejoin="round"/>
<path d="M661 282.711H655.292V277H645.708V282.711H640V292.289H645.708V298H655.292V292.289H661V282.711Z" fill="#00B0EC"/>
<path d="M367 182.494C367 189.403 361.627 195 354.994 195C348.361 195 343 189.403 343 182.494C343 175.597 348.373 170 354.994 170C361.615 170 367 175.584 367 182.494Z" fill="#00B0EC"/>
<path d="M432 118L458 133L432 148V118Z" fill="white"/>
<path d="M450 262L466 271L450 280V262Z" stroke="white" stroke-miterlimit="10" stroke-linecap="round" stroke-linejoin="round"/>
<path d="M688 84L712 97.5061L688 111V84Z" stroke="white" stroke-miterlimit="10" stroke-linecap="round" stroke-linejoin="round"/>
<path d="M516 276H519.918L530.155 248H526.237L516 276ZM556.078 248H552.16L541.922 276H545.84L556.078 248ZM543.123 248H539.205L528.967 276H532.885L543.123 248ZM569.033 248H565.114L554.877 276H558.795L569.033 248ZM582 248H578.082L567.844 276H571.763L582 248Z" fill="white"/>
<path d="M736 216.751H742.217L758.46 173H752.243L736 216.751ZM799.589 173H793.373L777.129 216.751H783.346L799.589 173ZM779.014 173H772.798L756.555 216.751H762.771L779.014 173ZM820.144 173H813.927L797.684 216.751H803.901L820.144 173ZM840.698 173H834.482L818.239 216.751H824.455L840.698 173Z" fill="white"/>
<path d="M762.47 523.62C760.477 525.093 758.007 526.22 755.06 527C752.2 527.693 749.167 528.04 745.96 528.04C737.64 528.04 731.183 525.917 726.59 521.67C722.083 517.423 719.83 511.183 719.83 502.95V474.22H709.04V458.62H719.83V441.59H740.11V458.62H757.53V474.22H740.11V502.69C740.11 505.637 740.847 507.933 742.32 509.58C743.88 511.14 746.047 511.92 748.82 511.92C752.027 511.92 754.757 511.053 757.01 509.32L762.47 523.62ZM793.224 466.29C795.651 462.91 798.901 460.353 802.974 458.62C807.134 456.887 811.901 456.02 817.274 456.02V474.74C815.021 474.567 813.504 474.48 812.724 474.48C806.917 474.48 802.367 476.127 799.074 479.42C795.781 482.627 794.134 487.48 794.134 493.98V527H773.854V457.06H793.224V466.29ZM829.333 457.06H849.613V527H829.333V457.06ZM839.473 447.31C835.746 447.31 832.713 446.227 830.373 444.06C828.033 441.893 826.863 439.207 826.863 436C826.863 432.793 828.033 430.107 830.373 427.94C832.713 425.773 835.746 424.69 839.473 424.69C843.199 424.69 846.233 425.73 848.573 427.81C850.913 429.89 852.083 432.49 852.083 435.61C852.083 438.99 850.913 441.807 848.573 444.06C846.233 446.227 843.199 447.31 839.473 447.31ZM937.854 457.06L908.344 527H887.414L858.034 457.06H878.964L898.334 504.64L918.354 457.06H937.854ZM972.054 456.02C982.888 456.02 991.208 458.62 997.014 463.82C1002.82 468.933 1005.72 476.69 1005.72 487.09V527H986.744V518.29C982.931 524.79 975.824 528.04 965.424 528.04C960.051 528.04 955.371 527.13 951.384 525.31C947.484 523.49 944.494 520.977 942.414 517.77C940.334 514.563 939.294 510.923 939.294 506.85C939.294 500.35 941.721 495.237 946.574 491.51C951.514 487.783 959.098 485.92 969.324 485.92H985.444C985.444 481.5 984.101 478.12 981.414 475.78C978.728 473.353 974.698 472.14 969.324 472.14C965.598 472.14 961.914 472.747 958.274 473.96C954.721 475.087 951.688 476.647 949.174 478.64L941.894 464.47C945.708 461.783 950.258 459.703 955.544 458.23C960.918 456.757 966.421 456.02 972.054 456.02ZM970.494 514.39C973.961 514.39 977.038 513.61 979.724 512.05C982.411 510.403 984.318 508.02 985.444 504.9V497.75H971.534C963.214 497.75 959.054 500.48 959.054 505.94C959.054 508.54 960.051 510.62 962.044 512.18C964.124 513.653 966.941 514.39 970.494 514.39ZM1069.19 523.62C1067.2 525.093 1064.73 526.22 1061.78 527C1058.92 527.693 1055.89 528.04 1052.68 528.04C1044.36 528.04 1037.9 525.917 1033.31 521.67C1028.8 517.423 1026.55 511.183 1026.55 502.95V474.22H1015.76V458.62H1026.55V441.59H1046.83V458.62H1064.25V474.22H1046.83V502.69C1046.83 505.637 1047.57 507.933 1049.04 509.58C1050.6 511.14 1052.77 511.92 1055.54 511.92C1058.75 511.92 1061.48 511.053 1063.73 509.32L1069.19 523.62ZM1111.69 528.04C1104.33 528.04 1097.7 526.523 1091.8 523.49C1086 520.37 1081.45 516.08 1078.15 510.62C1074.86 505.16 1073.21 498.963 1073.21 492.03C1073.21 485.097 1074.86 478.9 1078.15 473.44C1081.45 467.98 1086 463.733 1091.8 460.7C1097.7 457.58 1104.33 456.02 1111.69 456.02C1119.06 456.02 1125.65 457.58 1131.45 460.7C1137.26 463.733 1141.81 467.98 1145.1 473.44C1148.4 478.9 1150.04 485.097 1150.04 492.03C1150.04 498.963 1148.4 505.16 1145.1 510.62C1141.81 516.08 1137.26 520.37 1131.45 523.49C1125.65 526.523 1119.06 528.04 1111.69 528.04ZM1111.69 511.4C1116.89 511.4 1121.14 509.667 1124.43 506.2C1127.81 502.647 1129.5 497.923 1129.5 492.03C1129.5 486.137 1127.81 481.457 1124.43 477.99C1121.14 474.437 1116.89 472.66 1111.69 472.66C1106.49 472.66 1102.2 474.437 1098.82 477.99C1095.44 481.457 1093.75 486.137 1093.75 492.03C1093.75 497.923 1095.44 502.647 1098.82 506.2C1102.2 509.667 1106.49 511.4 1111.69 511.4ZM1182.97 466.29C1185.4 462.91 1188.65 460.353 1192.72 458.62C1196.88 456.887 1201.65 456.02 1207.02 456.02V474.74C1204.77 474.567 1203.25 474.48 1202.47 474.48C1196.66 474.48 1192.11 476.127 1188.82 479.42C1185.53 482.627 1183.88 487.48 1183.88 493.98V527H1163.6V457.06H1182.97V466.29Z" fill="#F1B12D"/>
<defs>
<linearGradient id="paint0_linear" x1="960" y1="0" x2="960" y2="960" gradientUnits="userSpaceOnUse">
<stop stop-color="#740389"/>
<stop offset="1" stop-color="#510075"/>
</linearGradient>
</defs>
</svg>
